<?xml version="1.0" encoding="utf-8"?>
<!-- Generator: Adobe Illustrator 17.0.0, SVG Export Plug-In . SVG Version: 6.00 Build 0)  -->
<!DOCTYPE svg PUBLIC "-//W3C//DTD SVG 1.1//EN" "http://www.w3.org/Graphics/SVG/1.1/DTD/svg11.dtd">
<svg version="1.1" id="Layer_1" xmlns="http://www.w3.org/2000/svg" xmlns:xlink="http://www.w3.org/1999/xlink" x="0px" y="0px"
viewBox="0 0 792 322.437" enable-background="new 0 0 792 322.437" xml:space="preserve">
<g>
	<g>
		<g>
			<linearGradient id="SVGID_1_" gradientUnits="userSpaceOnUse" x1="261.6179" y1="152.6482" x2="261.6179" y2="249.5719">
				<stop  offset="0" style="stop-color:#231F20"/>
				<stop  offset="0.9104" style="stop-color:#231F20;stop-opacity:0.0896"/>
				<stop  offset="1" style="stop-color:#231F20;stop-opacity:0"/>
			</linearGradient>
			<path fill="url(#SVGID_1_)" d="M294.563,150.99c-0.804-2.887-2.157-5.201-4.081-6.968c-1.925-1.759-4.488-3.036-7.682-3.84
				c-3.21-0.796-7.242-1.203-12.103-1.203h-28.918v-16.806h-14.31v46.396c0,4.164,0.398,7.665,1.194,10.519
				c0.805,2.845,2.165,5.152,4.09,6.919c1.916,1.759,4.479,3.036,7.681,3.841c3.202,0.796,7.2,1.203,12.004,1.203h18.259
				c4.861,0,8.892-0.407,12.103-1.203c3.194-0.804,5.757-2.082,7.682-3.841c1.925-1.767,3.277-4.073,4.081-6.919
				c0.805-2.854,1.203-6.354,1.203-10.519v-7.01C295.766,157.394,295.368,153.869,294.563,150.99z M281.448,168.187
				c0,2.173-0.158,3.949-0.473,5.325c-0.323,1.377-0.904,2.464-1.734,3.269c-0.83,0.805-1.983,1.361-3.459,1.684
				c-1.469,0.315-3.327,0.473-5.566,0.473H252.92c-2.24,0-4.081-0.158-5.525-0.473c-1.435-0.324-2.571-0.879-3.409-1.684
				c-0.83-0.804-1.41-1.891-1.726-3.269c-0.324-1.377-0.481-3.119-0.481-5.234V151.28h28.437c2.239,0,4.098,0.141,5.566,0.431
				c1.476,0.282,2.629,0.813,3.459,1.585c0.829,0.763,1.41,1.858,1.734,3.26c0.315,1.41,0.473,3.235,0.473,5.475V168.187z"/>
			<linearGradient id="SVGID_2_" gradientUnits="userSpaceOnUse" x1="339.8563" y1="152.645" x2="339.8563" y2="249.5769">
				<stop  offset="0" style="stop-color:#231F20"/>
				<stop  offset="0.9104" style="stop-color:#231F20;stop-opacity:0.0896"/>
				<stop  offset="1" style="stop-color:#231F20;stop-opacity:0"/>
			</linearGradient>
			<path fill="url(#SVGID_2_)" d="M359.16,138.978v29.208c0,2.24-0.174,4.048-0.523,5.425c-0.357,1.377-0.962,2.447-1.825,3.219
				c-0.871,0.763-2.066,1.294-3.608,1.585c-1.535,0.29-3.451,0.431-5.757,0.431h-14.99c-2.173,0-4.015-0.141-5.524-0.431
				c-1.502-0.291-2.705-0.821-3.601-1.585c-0.896-0.771-1.551-1.841-1.966-3.219c-0.423-1.377-0.63-3.186-0.63-5.425v-29.208h-14.4
				v29.59c0,4.164,0.398,7.665,1.194,10.519c0.804,2.845,2.165,5.152,4.081,6.919c1.925,1.759,4.488,3.036,7.69,3.841
				c3.202,0.796,7.2,1.203,12.003,1.203h16.906c4.869,0,8.917-0.407,12.153-1.203c3.235-0.804,5.815-2.082,7.731-3.841
				c1.925-1.767,3.285-4.073,4.081-6.919c0.805-2.854,1.203-6.354,1.203-10.519v-29.59H359.16z"/>
			<linearGradient id="SVGID_3_" gradientUnits="userSpaceOnUse" x1="414.8305" y1="152.645" x2="414.8305" y2="249.5769">
				<stop  offset="0" style="stop-color:#231F20"/>
				<stop  offset="0.9104" style="stop-color:#231F20;stop-opacity:0.0896"/>
				<stop  offset="1" style="stop-color:#231F20;stop-opacity:0"/>
			</linearGradient>
			<path fill="url(#SVGID_3_)" d="M423.906,164.437l26.031-25.458h-17.287l-17.296,17.578l-16.906-17.578h-17.189l25.168,24.977
				l-26.993,27.093h17.479l17.868-18.831l17.578,18.831h17.869L423.906,164.437z"/>
			<linearGradient id="SVGID_4_" gradientUnits="userSpaceOnUse" x1="463.9643" y1="152.6443" x2="463.9643" y2="249.578">
				<stop  offset="0" style="stop-color:#231F20"/>
				<stop  offset="0.9104" style="stop-color:#231F20;stop-opacity:0.0896"/>
				<stop  offset="1" style="stop-color:#231F20;stop-opacity:0"/>
			</linearGradient>
			<path fill="url(#SVGID_4_)" d="M470.161,175.578c-0.738-0.705-2.04-1.053-3.89-1.053h-4.713c-1.791,0-3.06,0.348-3.79,1.053
				c-0.739,0.705-1.103,1.792-1.103,3.268v7.873c0,1.543,0.365,2.646,1.103,3.318c0.73,0.672,1.999,1.012,3.79,1.012h4.713
				c1.849,0,3.152-0.34,3.89-1.012c0.73-0.672,1.104-1.775,1.104-3.318v-7.873C471.264,177.37,470.891,176.283,470.161,175.578z"/>
			<linearGradient id="SVGID_5_" gradientUnits="userSpaceOnUse" x1="516.454" y1="152.6482" x2="516.454" y2="249.5719">
				<stop  offset="0" style="stop-color:#231F20"/>
				<stop  offset="0.9104" style="stop-color:#231F20;stop-opacity:0.0896"/>
				<stop  offset="1" style="stop-color:#231F20;stop-opacity:0"/>
			</linearGradient>
			<path fill="url(#SVGID_5_)" d="M549.407,150.99c-0.804-2.887-2.165-5.201-4.081-6.968c-1.925-1.759-4.488-3.036-7.689-3.84
				c-3.202-0.796-7.234-1.203-12.104-1.203h-28.909v-16.806h-14.318v46.396c0,4.164,0.398,7.665,1.203,10.519
				c0.805,2.845,2.165,5.152,4.081,6.919c1.924,1.759,4.479,3.036,7.69,3.841c3.202,0.796,7.2,1.203,12.003,1.203h18.25
				c4.869,0,8.901-0.407,12.104-1.203c3.201-0.804,5.764-2.082,7.689-3.841c1.916-1.767,3.277-4.073,4.081-6.919
				c0.796-2.854,1.195-6.354,1.195-10.519v-7.01C550.602,157.394,550.204,153.869,549.407,150.99z M536.293,168.187
				c0,2.173-0.158,3.949-0.481,5.325c-0.324,1.377-0.896,2.464-1.725,3.269c-0.838,0.805-1.991,1.361-3.459,1.684
				c-1.477,0.315-3.335,0.473-5.575,0.473h-17.288c-2.24,0-4.081-0.158-5.525-0.473c-1.443-0.324-2.579-0.879-3.409-1.684
				c-0.829-0.804-1.41-1.891-1.725-3.269c-0.323-1.377-0.481-3.119-0.481-5.234V151.28h28.428c2.24,0,4.098,0.141,5.575,0.431
				c1.468,0.282,2.621,0.813,3.459,1.585c0.83,0.763,1.402,1.858,1.725,3.26c0.323,1.41,0.481,3.235,0.481,5.475V168.187z"/>
			<linearGradient id="SVGID_6_" gradientUnits="userSpaceOnUse" x1="594.8873" y1="152.645" x2="594.8873" y2="249.5769">
				<stop  offset="0" style="stop-color:#231F20"/>
				<stop  offset="0.9104" style="stop-color:#231F20;stop-opacity:0.0896"/>
				<stop  offset="1" style="stop-color:#231F20;stop-opacity:0"/>
			</linearGradient>
			<path fill="url(#SVGID_6_)" d="M628.795,170.293v-17.097c0-2.049-0.282-3.949-0.863-5.715c-0.573-1.759-1.584-3.269-3.028-4.513
				c-1.435-1.252-3.393-2.223-5.856-2.928c-2.464-0.705-5.558-1.062-9.266-1.062h-25.168c-4.613,0-8.428,0.357-11.431,1.062
				c-3.011,0.705-5.434,1.841-7.259,3.409c-1.825,1.568-3.103,3.65-3.841,6.238c-0.739,2.596-1.104,5.782-1.104,9.564v12.004
				c0,3.451,0.44,6.429,1.311,8.934c0.879,2.522,2.207,4.571,3.974,6.147c3.518,3.136,9.415,4.712,17.677,4.712h16.906V180.19
				h-16.906c-1.667,0-3.061-0.1-4.181-0.29c-1.119-0.191-2.015-0.556-2.688-1.104c-0.671-0.539-1.144-1.294-1.393-2.256
				c-0.257-0.962-0.39-2.24-0.39-3.841v-2.406H628.795z M575.289,158.29c0-1.858,0.166-3.327,0.481-4.421
				c0.323-1.087,0.854-1.916,1.585-2.497c0.738-0.572,1.716-0.945,2.937-1.103c1.211-0.158,2.72-0.241,4.512-0.241h23.824
				c2.173,0,3.692,0.29,4.563,0.863c0.863,0.581,1.294,1.734,1.294,3.46v6.727h-39.196V158.29z"/>
			<linearGradient id="SVGID_7_" gradientUnits="userSpaceOnUse" x1="654.0131" y1="152.6492" x2="654.0131" y2="249.571">
				<stop  offset="0" style="stop-color:#231F20"/>
				<stop  offset="0.9104" style="stop-color:#231F20;stop-opacity:0.0896"/>
				<stop  offset="1" style="stop-color:#231F20;stop-opacity:0"/>
			</linearGradient>
			<path fill="url(#SVGID_7_)" d="M656.751,138.978v-14.692h-14.6v14.692h-7.3V150.6h7.3v40.449h14.6V150.6h16.425v-11.622H656.751z
				"/>
		</g>
		<g>
			<path fill="#007BDA" d="M156.13,184.284c-0.554-4.337-1.759-8.943-3.467-13.603c-6.142,1.518-12.461,2.514-16.908,3.102
				c4.097,3.512,7.907,9.944,9.583,19.326c2.237-0.725,6.076-1.837,11.018-2.771C156.461,188.407,156.4,186.388,156.13,184.284z"/>
			<linearGradient id="SVGID_8_" gradientUnits="userSpaceOnUse" x1="147.3085" y1="199.757" x2="146.0124" y2="179.5949">
				<stop  offset="0" style="stop-color:#54B948"/>
				<stop  offset="0.3764" style="stop-color:#00A651"/>
				<stop  offset="1" style="stop-color:#005826"/>
			</linearGradient>
			<path fill="url(#SVGID_8_)" d="M156.13,184.284c-0.554-4.337-1.759-8.943-3.467-13.603c-6.142,1.518-12.461,2.514-16.908,3.102
				c4.097,3.512,7.907,9.944,9.583,19.326c2.237-0.725,6.076-1.837,11.018-2.771C156.461,188.407,156.4,186.388,156.13,184.284z"/>
			<path fill="#00488E" d="M149.79,206.506c2.96-3.134,5.136-7.299,6.088-12.23c-6.893,1.398-11.303,3.074-11.371,3.1l-2.222,0.86
				l-0.319-2.362c-1.925-14.245-8.83-20.702-12.73-21.425h-0.011c-1.182-0.217-2.143,0.023-2.852,0.716
				c-1.327,1.3-1.753,4.097-1.167,7.672c2.591,15.799,16.161,30.242,27.927,29.72l0.012-0.001c2.385-0.091,4.604-0.822,6.599-2.172
				c1.209-0.815,2.233-1.79,3.1-2.879C157.578,207.789,152.941,207.425,149.79,206.506z"/>
			<linearGradient id="SVGID_9_" gradientUnits="userSpaceOnUse" x1="121.2562" y1="160.1167" x2="145.106" y2="198.691">
				<stop  offset="0" style="stop-color:#54B948"/>
				<stop  offset="0.3764" style="stop-color:#00A651"/>
				<stop  offset="1" style="stop-color:#005826"/>
			</linearGradient>
			<path fill="url(#SVGID_9_)" d="M149.79,206.506c2.96-3.134,5.136-7.299,6.088-12.23c-6.893,1.398-11.303,3.074-11.371,3.1
				l-2.222,0.86l-0.319-2.362c-1.925-14.245-8.83-20.702-12.73-21.425h-0.011c-1.182-0.217-2.143,0.023-2.852,0.716
				c-1.327,1.3-1.753,4.097-1.167,7.672c2.591,15.799,16.161,30.242,27.927,29.72l0.012-0.001c2.385-0.091,4.604-0.822,6.599-2.172
				c1.209-0.815,2.233-1.79,3.1-2.879C157.578,207.789,152.941,207.425,149.79,206.506z"/>
			<path fill="#00C960" d="M152.663,170.68c1.708,4.661,2.913,9.266,3.467,13.603c0.271,2.104,0.331,4.123,0.225,6.054
				c-0.075,1.36-0.233,2.676-0.477,3.939c-0.952,4.93-3.128,9.096-6.088,12.23c3.152,0.918,7.788,1.282,13.054,0.999
				c3.724-4.677,4.535-11.464,4.471-16.823c-0.084-7.555-1.897-16.216-5.241-25.049c-5.367-14.203-13.755-26.442-23.015-33.578
				l-2.596-2.001l3.038-1.23c0.25-0.101,21.935-8.769,46.882-10.781c-2.428-3.049-5.004-5.802-7.716-8.098
				c-0.069-0.059-0.159-0.087-0.249-0.078c-30.969,3.045-59.593,18.057-59.593,18.057c11.424,6.497,21.783,18.509,28.72,31.41
				c1.391,2.579,2.626,5.194,3.725,7.807C151.766,168.324,152.231,169.503,152.663,170.68z"/>
			<linearGradient id="SVGID_10_" gradientUnits="userSpaceOnUse" x1="150.385" y1="114.8079" x2="169.7406" y2="186.1481">
				<stop  offset="0" style="stop-color:#54B948"/>
				<stop  offset="0.3764" style="stop-color:#00A651"/>
				<stop  offset="1" style="stop-color:#005826"/>
			</linearGradient>
			<path fill="url(#SVGID_10_)" d="M152.663,170.68c1.708,4.661,2.913,9.266,3.467,13.603c0.271,2.104,0.331,4.123,0.225,6.054
				c-0.075,1.36-0.233,2.676-0.477,3.939c-0.952,4.93-3.128,9.096-6.088,12.23c3.152,0.918,7.788,1.282,13.054,0.999
				c3.724-4.677,4.535-11.464,4.471-16.823c-0.084-7.555-1.897-16.216-5.241-25.049c-5.367-14.203-13.755-26.442-23.015-33.578
				l-2.596-2.001l3.038-1.23c0.25-0.101,21.935-8.769,46.882-10.781c-2.428-3.049-5.004-5.802-7.716-8.098
				c-0.069-0.059-0.159-0.087-0.249-0.078c-30.969,3.045-59.593,18.057-59.593,18.057c11.424,6.497,21.783,18.509,28.72,31.41
				c1.391,2.579,2.626,5.194,3.725,7.807C151.766,168.324,152.231,169.503,152.663,170.68z"/>
			<linearGradient id="SVGID_11_" gradientUnits="userSpaceOnUse" x1="170.9776" y1="113.3513" x2="189.7805" y2="190.7754">
				<stop  offset="0" style="stop-color:#54B948"/>
				<stop  offset="0.3764" style="stop-color:#00A651"/>
				<stop  offset="1" style="stop-color:#005826"/>
			</linearGradient>
			<path fill="url(#SVGID_11_)" d="M213.662,158.729c-0.049-0.564-0.207-1.352-0.423-2.289c-0.008-0.009-0.008-0.025-0.008-0.033
				c-0.896-3.783-2.945-10.021-4.521-14.642c-0.648-1.925-1.228-3.567-1.602-4.637c0.025-0.025,0.05-0.058,0.075-0.083
				c-0.166-0.365-0.332-0.739-0.498-1.103c-0.016-0.033-0.025-0.058-0.033-0.083c-0.008-0.033-0.016-0.05-0.016-0.05l-0.008,0.008
				c-2.514-5.426-5.55-10.378-9.043-14.426c-23.102-0.257-45.699,6.959-53.672,9.796c8.769,7.715,16.566,19.586,21.676,33.116
				c3.492,9.241,5.392,18.341,5.492,26.33c0.108,9.946-2.588,17.437-7.84,21.8c13.182-1.07,33.298-5.094,42.614-12.41l0.174-0.125
				c0.307-0.241,0.598-0.489,0.888-0.755l0.912-0.879C214.898,190.799,216.466,174.938,213.662,158.729z"/>
		</g>
	</g>
	<linearGradient id="SVGID_12_" gradientUnits="userSpaceOnUse" x1="595.5427" y1="191.808" x2="595.5427" y2="181.322">
		<stop  offset="0" style="stop-color:#54B948"/>
		<stop  offset="0.3764" style="stop-color:#00A651"/>
		<stop  offset="1" style="stop-color:#005826"/>
	</linearGradient>
	<path fill="url(#SVGID_12_)" d="M628.795,180.19v10.859h-44.854c-8.262,0-14.16-1.576-17.677-4.712
		c-1.767-1.576-3.094-3.625-3.974-6.147H628.795z"/>
</g>
</svg>
